<svg width="24" height="24" viewBox="0 0 24 24" fill="none" xmlns="http://www.w3.org/2000/svg">
<path d="M11 24V13.5549H10.3333C8.91111 13.5549 7.57222 13.2789 6.31667 12.7268C5.06111 12.1746 3.94444 11.3915 2.96667 10.3775C1.98889 9.36338 1.25 8.19155 0.75 6.86197C0.25 5.53239 0 4.14648 0 2.70423V0H2.6C3.97778 0 5.3 0.276056 6.56667 0.828169C7.83333 1.38028 8.96667 2.16338 9.96667 3.17746C10.7 3.94366 11.3056 4.8 11.7833 5.74648C12.2611 6.69296 12.6 7.69578 12.8 8.75493C12.9778 8.48451 13.1667 8.22535 13.3667 7.97746C13.5667 7.72958 13.7778 7.48169 14 7.2338C15 6.21972 16.1333 5.43662 17.4 4.88451C18.6667 4.33239 20 4.05634 21.4 4.05634H24V6.76056C24 8.20282 23.7333 9.58873 23.2 10.9183C22.6667 12.2479 21.9111 13.4197 20.9333 14.4338C19.9333 15.4479 18.8056 16.2254 17.55 16.7662C16.2944 17.307 14.9778 17.5775 13.6 17.5775H13V24H11ZM11.0333 11.493C11.0333 10.1183 10.8111 8.83944 10.3667 7.65634C9.92222 6.47324 9.31111 5.46479 8.53333 4.63099C7.75556 3.81972 6.8 3.1831 5.66667 2.72113C4.53333 2.25915 3.31111 2.02817 2 2.02817C2 3.44789 2.20556 4.7493 2.61667 5.93239C3.02778 7.11549 3.62222 8.12394 4.4 8.95775C5.33333 9.97183 6.33889 10.6479 7.41667 10.9859C8.49444 11.3239 9.7 11.493 11.0333 11.493ZM13 15.5493C14.3333 15.5493 15.5667 15.3296 16.7 14.8901C17.8333 14.4507 18.7889 13.8141 19.5667 12.9803C20.3444 12.169 20.9444 11.1718 21.3667 9.98873C21.7889 8.80563 22 7.50423 22 6.08451C20.6667 6.08451 19.4333 6.31549 18.3 6.77746C17.1667 7.23944 16.2111 7.87606 15.4333 8.68732C14.4778 9.70141 13.8333 10.7606 13.5 11.8648C13.1667 12.969 13 14.1972 13 15.5493Z" fill="#43493E"/>
</svg>
